<?xml version="1.0"?>
<svg xmlns="http://www.w3.org/2000/svg" xmlns:xlink="http://www.w3.org/1999/xlink" xmlns:svgjs="http://svgjs.com/svgjs" version="1.1" width="512" height="512" x="0" y="0" viewBox="0 0 209.042 209.042" style="enable-background:new 0 0 512 512" xml:space="preserve" class=""><g>
<path xmlns="http://www.w3.org/2000/svg" d="M114.242,209.042H94.801c-4.993,0-9.856-1.421-14.064-4.108l-5.861-3.744v3.473c0,0.592-0.263,1.154-0.717,1.534  c-0.453,0.38-1.052,0.541-1.636,0.435l-15.486-2.776c-10.195-1.828-17.578-11.009-17.173-21.356  c0.899-22.973,2.617-65.318,4.01-90.812c1.455-26.642,7.414-66.944,10.836-88.597C54.998,1.266,56.48,0,58.322,0  c0.014,0,0.027,0,0.042,0c1.866,0.019,3.347,1.324,3.601,3.174l7.041,51.324l10.177-1.161c16.814-1.917,33.863-1.917,50.678,0  l10.177,1.161l7.041-51.325c0.254-1.85,1.734-3.155,3.601-3.174c0.014,0,0.028,0,0.042,0c1.842,0,3.324,1.266,3.613,3.091  c3.422,21.649,9.379,61.946,10.836,88.597c1.387,25.41,3.107,67.803,4.01,90.812c0.405,10.347-6.978,19.528-17.173,21.356  l-15.487,2.776c-0.583,0.106-1.182-0.055-1.636-0.435c-0.454-0.38-0.717-0.941-0.717-1.534v-3.473l-5.859,3.744  C124.098,207.622,119.235,209.042,114.242,209.042z M104.521,205.042h9.721c4.229,0,8.348-1.203,11.912-3.479l8.013-5.119v-45.285  l-28.945,10.821c-0.451,0.169-0.949,0.169-1.4,0l-28.946-10.821v45.285l8.014,5.119c3.564,2.276,7.684,3.479,11.912,3.479H104.521z   M138.167,197.569v4.703l13.135-2.354c8.241-1.477,14.209-8.898,13.882-17.262c-0.902-22.997-2.622-65.367-4.008-90.75  c-1.398-25.584-6.989-63.936-10.441-85.955l-7,51.029c-0.147,1.076-1.123,1.835-2.208,1.715l-12.119-1.382  c-16.514-1.884-33.258-1.884-49.771,0l-12.119,1.382c-1.095,0.119-2.061-0.639-2.208-1.715l-7-51.029  c-3.453,22.023-9.045,60.38-10.441,85.955c-1.392,25.467-3.107,67.789-4.008,90.75c-0.327,8.364,5.641,15.785,13.882,17.262  l13.134,2.354v-4.703c0-0.021,0-0.043,0-0.064v-49.229c0-0.656,0.321-1.27,0.86-1.643c0.538-0.375,1.228-0.459,1.84-0.23  l30.946,11.569l30.945-11.569c0.612-0.229,1.303-0.145,1.84,0.23c0.539,0.374,0.86,0.987,0.86,1.643v49.229  C138.167,197.527,138.167,197.548,138.167,197.569z M124.998,183.224c-0.201,0-0.405-0.031-0.606-0.095  c-0.112-0.036-11.269-3.553-19.87-3.553s-19.758,3.517-19.87,3.553c-1.053,0.337-2.177-0.247-2.512-1.299s0.246-2.177,1.298-2.512  c0.48-0.153,11.853-3.741,21.084-3.741s20.604,3.588,21.084,3.741c1.052,0.335,1.633,1.46,1.298,2.512  C126.633,182.681,125.845,183.224,124.998,183.224z M125.969,131.934c-1.967,0-3.751-0.464-5.338-1.391  c-4.525-2.645-5.531-8.079-5.572-8.309c-0.175-0.99,0.413-1.956,1.372-2.256l27.515-8.619c0.736-0.231,1.549-0.015,2.073,0.559  s0.669,1.397,0.372,2.115c-0.229,0.555-5.73,13.625-14.941,16.868C129.495,131.589,127.664,131.934,125.969,131.934z   M119.523,123.201c0.516,1.259,1.476,2.933,3.149,3.901c1.89,1.092,4.395,1.1,7.449,0.025l0,0  c4.654-1.639,8.345-6.805,10.494-10.534L119.523,123.201z M83.073,131.934c-1.695,0-3.525-0.344-5.48-1.033  c-9.211-3.243-14.712-16.313-14.941-16.868c-0.297-0.718-0.152-1.542,0.372-2.115c0.525-0.573,1.336-0.788,2.073-0.559l27.515,8.619  c0.959,0.301,1.547,1.267,1.372,2.256c-0.041,0.23-1.047,5.664-5.572,8.309C86.824,131.47,85.04,131.934,83.073,131.934z   M68.427,116.594c2.149,3.729,5.84,8.895,10.494,10.534c3.063,1.08,5.579,1.068,7.472-0.038c1.658-0.969,2.612-2.634,3.126-3.888  L68.427,116.594z" fill="#ffffff" data-original="#000000" style="" class=""/>
<g xmlns="http://www.w3.org/2000/svg">
</g>
<g xmlns="http://www.w3.org/2000/svg">
</g>
<g xmlns="http://www.w3.org/2000/svg">
</g>
<g xmlns="http://www.w3.org/2000/svg">
</g>
<g xmlns="http://www.w3.org/2000/svg">
</g>
<g xmlns="http://www.w3.org/2000/svg">
</g>
<g xmlns="http://www.w3.org/2000/svg">
</g>
<g xmlns="http://www.w3.org/2000/svg">
</g>
<g xmlns="http://www.w3.org/2000/svg">
</g>
<g xmlns="http://www.w3.org/2000/svg">
</g>
<g xmlns="http://www.w3.org/2000/svg">
</g>
<g xmlns="http://www.w3.org/2000/svg">
</g>
<g xmlns="http://www.w3.org/2000/svg">
</g>
<g xmlns="http://www.w3.org/2000/svg">
</g>
<g xmlns="http://www.w3.org/2000/svg">
</g>
</g></svg>
