<?xml version="1.0" encoding="iso-8859-1"?>
<!-- Generator: Adobe Illustrator 19.0.0, SVG Export Plug-In . SVG Version: 6.00 Build 0)  -->
<svg version="1.1" id="Capa_1" xmlns="http://www.w3.org/2000/svg" xmlns:xlink="http://www.w3.org/1999/xlink" x="0px" y="0px"
	 viewBox="0 0 512 512" style="enable-background:new 0 0 512 512;" xml:space="preserve">
<rect x="69.712" y="7.604" style="fill:#25C2CE;" width="372.574" height="496.792"/>
<rect x="69.712" y="7.604" style="fill:#F4E662;" width="372.574" height="132.806"/>
<path style="fill:#ED3B72;" d="M372.335,443.027c-59.05-77.814-38.62-107.823,33.518-129.179
	c-93.182-8.023-74.678-60.716-28.954-139.986c-72.234,72.234-135.632,85.214-156.988,13.075
	c-11.951,74.279-7.505,99.897-74.485,64.978c43.201,61.964,17.223,60.831-54.915,82.187c74.279,11.951,54.725,55.174,19.806,122.155
	c81.616-62.852,106.002-64.893,127.358,7.245C249.626,389.224,305.354,408.109,372.335,443.027z"/>
<path style="fill:#F4E662;" d="M317.589,339.618c-28.878-18.765-43.907-35.882-26.064-63.69
	c-28.142,17.368-35.361,14.104-43.343-18.127c-15.823,32.232-28.65,45.058-60.881,60.881c32.232,7.911,14.522,35.99-3.084,63.966
	c27.975-17.607,56.054-35.316,63.966-3.084C264.004,347.333,285.357,339.618,317.589,339.618z"/>
<path d="M442.287,0H69.713c-4.199,0-7.604,3.405-7.604,7.604v391.115c0,4.199,3.405,7.604,7.604,7.604l0,0
	c4.199,0,7.604-3.405,7.604-7.604V148.009h238.156c4.199,0,7.604-3.405,7.604-7.604l0,0c0-4.199-3.405-7.604-7.604-7.604H77.317
	V15.208h357.366v117.593h-83.724c-4.199,0-7.604,3.405-7.604,7.604l0,0c0,4.199,3.405,7.604,7.604,7.604h83.724v348.784H77.317
	v-62.587c0-4.199-3.405-7.604-7.604-7.604l0,0c-4.199,0-7.604,3.405-7.604,7.604v70.191c0,4.199,3.405,7.604,7.604,7.604h372.574
	c4.199,0,7.604-3.405,7.604-7.604V7.604C449.891,3.405,446.487,0,442.287,0z"/>
<path d="M119.412,54.647c-5.853,0-9.172,3.232-9.172,10.046v24.373c0,6.814,3.319,10.046,9.348,10.046
	c7.95,0,8.648-5.679,8.911-9.348c0.174-2.708,2.621-3.582,5.591-3.582c3.931,0,5.766,1.136,5.766,5.591
	c0,10.571-8.649,17.297-20.879,17.297c-11.007,0-20.093-5.416-20.093-20.006V64.693c0-14.589,9.172-20.006,20.18-20.006
	c12.143,0,20.792,6.464,20.792,16.599c0,4.543-1.835,5.591-5.679,5.591c-3.232,0-5.591-0.961-5.679-3.582
	C128.322,60.587,127.711,54.647,119.412,54.647z"/>
<path d="M155.575,89.067V64.693c0-14.589,8.911-20.006,20.442-20.006c11.532,0,20.53,5.416,20.53,20.006v24.373
	c0,14.589-8.998,20.006-20.53,20.006C164.486,109.072,155.575,103.656,155.575,89.067z M185.191,64.693
	c0-6.901-3.494-10.046-9.172-10.046c-5.766,0-9.085,3.145-9.085,10.046v24.373c0,6.901,3.319,10.046,9.085,10.046
	c5.679,0,9.172-3.145,9.172-10.046V64.693z"/>
<path d="M243.982,85.573c-0.961,1.747-2.446,2.271-3.845,2.271c-1.397,0-2.795-0.524-3.756-2.271l-10.046-18.871v38.264
	c0,2.358-2.882,3.582-5.679,3.582c-2.883,0-5.679-1.224-5.679-3.582V50.367c0-4.193,2.795-5.679,5.679-5.679
	c4.106,0,5.94,0.874,8.824,6.028l10.746,19.569l10.745-19.569c2.883-5.154,4.805-6.028,8.911-6.028c2.883,0,5.679,1.485,5.679,5.679
	v54.6c0,2.358-2.882,3.582-5.679,3.582c-2.883,0-5.679-1.224-5.679-3.582V67.402L243.982,85.573z"/>
<path d="M284.774,48.182c0-2.446,2.796-3.495,5.679-3.495c2.796,0,5.68,1.048,5.68,3.495v56.784c0,2.358-2.883,3.582-5.68,3.582
	c-2.882,0-5.679-1.224-5.679-3.582V48.182z"/>
<path d="M335.267,54.647c-5.852,0-9.172,3.232-9.172,10.046v24.373c0,6.814,3.319,10.046,9.348,10.046
	c7.95,0,8.648-5.679,8.911-9.348c0.174-2.708,2.621-3.582,5.591-3.582c3.931,0,5.766,1.136,5.766,5.591
	c0,10.571-8.648,17.297-20.879,17.297c-11.006,0-20.093-5.416-20.093-20.006V64.693c0-14.589,9.173-20.006,20.181-20.006
	c12.143,0,20.791,6.464,20.791,16.599c0,4.543-1.835,5.591-5.679,5.591c-3.232,0-5.591-0.961-5.679-3.582
	C344.178,60.587,343.567,54.647,335.267,54.647z"/>
<path d="M398.601,91.513c0-13.104-28.042-9.085-28.042-29.79c0-13.017,11.182-17.472,21.228-17.472
	c5.154,0,16.598,1.224,16.598,6.989c0,2.009-1.397,6.028-4.542,6.028c-2.708,0-4.718-3.319-12.056-3.319
	c-6.29,0-9.872,2.534-9.872,6.727c0,10.833,28.043,7.076,28.043,29.702c0,12.493-8.736,18.957-20.792,18.957
	c-11.444,0-20.18-5.766-20.18-10.833c0-2.446,2.271-6.116,4.979-6.116c3.582,0,5.94,6.727,14.851,6.727
	C394.058,99.113,398.601,96.755,398.601,91.513z"/>
<path d="M109.152,320.832c-6.262,1.77-13.359,3.776-20.801,5.979c-3.404,1.008-5.657,4.236-5.429,7.778
	c0.227,3.542,2.875,6.456,6.38,7.02c23.029,3.706,36.713,10.465,41.835,20.665c8.926,17.777-5.793,48.71-27.564,90.469
	c-1.65,3.164-0.877,7.05,1.858,9.343c2.734,2.293,6.697,2.374,9.524,0.197c39.859-30.696,69.901-50.012,86.965-44.478
	c10.936,3.543,19.712,18.303,28.462,47.857c0.961,3.246,3.941,5.446,7.288,5.445c0.163,0,0.327-0.005,0.491-0.016
	c3.542-0.227,6.456-2.875,7.02-6.38c3.517-21.858,10.889-35.326,22.537-41.175c22.735-11.414,62.025,5.863,101.101,26.234
	c3.155,1.645,7.03,0.883,9.325-1.838c2.295-2.719,2.398-6.667,0.246-9.502c-26.835-35.36-37.1-61.021-31.385-78.448
	c5.221-15.92,24.036-27.899,61.005-38.844c3.505-1.037,5.775-4.421,5.407-8.057c-0.368-3.636-3.272-6.496-6.913-6.809
	c-31.113-2.679-49.555-10.341-56.38-23.424c-10.765-20.635,5.551-56.973,33.36-105.186c1.906-3.305,1.069-7.511-1.96-9.833
	c-3.025-2.323-7.306-2.043-10.005,0.657c-43.364,43.365-83.462,64.365-110.001,57.624c-15.846-4.026-27.393-17.931-34.319-41.331
	c-1.008-3.404-4.243-5.662-7.778-5.429c-3.542,0.227-6.456,2.875-7.02,6.38c-1.233,7.664-2.315,14.959-3.269,21.396
	c-4.072,27.473-7.014,47.322-15.176,51.484c-8.72,4.448-29.868-5.539-45.017-13.437c-3.105-1.618-6.913-0.908-9.226,1.722
	c-2.312,2.63-2.53,6.498-0.527,9.37c9.771,14.015,22.38,33.712,19.086,42.929C155.189,307.822,135.879,313.279,109.152,320.832z
	 M165.597,269.653c16.143,6.225,26.819,6.814,35.269,2.504c14.411-7.348,17.893-26.467,22.582-57.884
	c8.614,14.055,20.098,22.961,34.328,26.576c16.741,4.253,36.352,0.7,58.297-10.559c10.776-5.53,21.995-12.852,33.569-21.898
	c-16.928,34.721-23.455,61.45-13,81.489c6.553,12.56,19.392,21.375,38.948,26.643c-24.238,10.48-37.837,22.877-43.033,38.717
	c-5.88,17.931-0.541,39.876,16.783,67.928c-36.768-16.963-66.3-24.345-88.445-13.225c-10.674,5.36-18.665,14.532-24.135,27.795
	c-8.357-19.962-17.708-30.371-30.151-34.403c-3.507-1.137-7.191-1.709-11.114-1.709c-9.006,0-19.258,3.022-31.422,9.185
	c-9.125,4.622-19.604,11.122-32.509,20.223c15.441-32.321,22.718-56.56,13.164-75.585c-4.656-9.272-13.143-16.431-25.7-21.607
	c29.991-8.523,48.18-14.457,53.566-29.53C175.786,295.378,173.839,284.87,165.597,269.653z"/>
<path d="M184.258,390.21c1.413,0,2.836-0.388,4.093-1.179c16.154-10.167,36.258-22.819,45.349-19.143
	c3.15,1.273,5.539,5.139,7.097,11.489c0.762,3.105,3.386,5.403,6.567,5.747c3.181,0.345,6.234-1.338,7.645-4.209
	c14.654-29.852,34.043-35.693,62.583-35.693c3.367,0,6.334-2.215,7.29-5.443c0.957-3.228-0.323-6.702-3.147-8.537
	c-30.959-20.117-36.744-33.046-23.806-53.206c1.917-2.988,1.512-6.904-0.976-9.436c-2.488-2.533-6.397-3.006-9.417-1.142
	c-4.367,2.694-17.642,10.897-22.242,9.018c-4.623-1.887-8.466-17.404-9.728-22.503c-0.768-3.102-3.393-5.393-6.571-5.733
	c-3.173-0.344-6.228,1.341-7.636,4.21c-15.015,30.586-26.819,42.391-57.407,57.407c-2.871,1.409-4.553,4.464-4.209,7.645
	s2.641,5.804,5.747,6.567c6.35,1.558,10.215,3.946,11.489,7.097c3.675,9.092-8.976,29.195-19.141,45.348l-0.055,0.086
	c-1.891,3.004-1.409,6.89,1.101,9.401C180.342,389.459,182.291,390.21,184.258,390.21z M246.336,277.345
	c3.221,7.584,7.264,12.785,13.208,15.211c5.195,2.121,10.8,1.729,17.151-0.489c-2.855,16.778,6.101,29.981,19.548,41.39
	c-18.762,2.921-34.553,10.92-47.311,29.622c-2.614-3.342-5.796-5.78-9.533-7.291c-2.994-1.21-6.138-1.756-9.416-1.756
	c-7.504,0-15.701,2.867-24.351,7.199c6.22-12.418,9.425-23.914,5.441-33.768c-1.435-3.548-3.705-6.598-6.792-9.134
	C223.606,307.282,235.252,295.992,246.336,277.345z"/>
<g>
</g>
<g>
</g>
<g>
</g>
<g>
</g>
<g>
</g>
<g>
</g>
<g>
</g>
<g>
</g>
<g>
</g>
<g>
</g>
<g>
</g>
<g>
</g>
<g>
</g>
<g>
</g>
<g>
</g>
</svg>
